Coordinates
version=1
nRows=9
nColumns=31
inDegrees=yes

Units are S.I. units (second, meters, Newtons, ...)
If the header above contains a line with 'inDegrees', this indicates whether rotational values are in degrees (yes) or radians (no).

endheader
time	bJoint_1	bJoint_3	bJoint_4	seatpos	slocangle	soarinout	sblpos	plocangle	poarinout	pblpos	hipangle	kneeangle	footangle	lbackangle	uarmleft_out	uarmleft_trn	uarmleft_up	se_inout	se_updown	handleleft_out	handleleft_trn	handleleft_up	uarmright_out	uarmright_trn	uarmright_up	pe_inout	pe_updown	handleright_out	handleright_trn	handleright_up
      2.52000000	      0.00000120	     -0.00000009	     -0.00000012	     -0.48278798	     68.35008279	     17.77865100	    -17.77865100	     67.73613636	     17.00933175	    -17.00933175	     33.45955814	    122.01854571	     65.47810385	     10.76229661	     -7.94252071	    -57.66443050	    -29.21358715	      5.94874150	     -1.38098871	     21.28436258	     32.88460262	     33.80002357	     57.93788336	   -107.41388721	     44.71143726	     -1.11891170	     -7.34280685	     28.33758027	    -62.36301420	     71.26787642
      2.54000000	      0.00000109	     -0.00000009	     -0.00000012	     -0.48176688	     68.22053886	     17.77757228	    -17.77757228	     67.60515604	     17.00849699	    -17.00849699	     33.52654633	    121.87579534	     65.40234167	     10.74139066	     -8.07850681	    -57.58806460	    -29.13723769	      5.97036045	     -1.42113057	     21.30841667	     32.89076459	     33.82508715	     57.86138876	   -107.34467507	     44.83917811	     -1.15193464	     -7.37013597	     28.35376108	    -62.36553061	     71.33303812
      2.56000000	      0.00000111	     -0.00000009	     -0.00000012	     -0.47996951	     68.09400989	     17.77401196	    -17.77401196	     67.47864044	     17.00418171	    -17.00418171	     33.64467963	    121.62426246	     65.26894209	     10.79264757	     -8.32080028	    -57.39154739	    -29.22959295	      6.05159334	     -1.40993837	     21.39066932	     32.81896940	     33.82061513	     57.92751363	   -107.44264558	     45.11802813	     -1.09253342	     -7.40616494	     28.52659143	    -62.37129923	     71.53552909
      2.58000000	      0.00000109	     -0.00000009	     -0.00000012	     -0.47877865	     67.93906713	     17.76746885	    -17.76746885	     67.33311930	     17.01263104	    -17.01263104	     33.72310244	    121.45742623	     65.18052867	     10.76752868	     -8.44396242	    -57.31992833	    -29.13838209	      6.03249878	     -1.37899867	     21.43035622	     32.84963927	     33.88910359	     57.86180678	   -107.37703719	     45.25437995	     -1.13006452	     -7.38706627	     28.53867558	    -62.38110966	     71.62634513
      2.60000000	      0.00000109	     -0.00000009	     -0.00000012	     -0.47699227	     67.81029654	     17.76518577	    -17.76518577	     67.20397094	     17.01045920	    -17.01045920	     33.84097157	    121.20688515	     65.04785671	     10.81550498	     -8.68015259	    -57.13115214	    -29.22376117	      6.10275590	     -1.36472340	     21.51336235	     32.78635885	     33.88638499	     57.90547266	   -107.46172453	     45.52269748	     -1.09445105	     -7.44127955	     28.69723717	    -62.39731449	     71.80653361
      2.62000000	      0.00000109	     -0.00000009	     -0.00000012	     -0.47580950	     67.66130113	     17.77708337	    -17.77708337	     67.04557115	     17.00524741	    -17.00524741	     33.91916430	    121.04081914	     64.95998344	     10.78305798	     -8.79543193	    -57.08840810	    -29.11614279	      6.03143544	     -1.39804909	     21.57593886	     32.84383609	     33.89654796	     57.83842488	   -107.31811515	     45.57957641	     -1.17385329	     -7.22553729	     28.61644671	    -62.40392055	     71.92631878
      2.64000000	      0.00000113	     -0.00000009	     -0.00000012	     -0.47480143	     67.53230477	     17.77473272	    -17.77473272	     66.91356949	     17.00528431	    -17.00528431	     33.98590251	    120.89916726	     64.88506978	     10.76283260	     -8.90921073	    -57.03254711	    -29.02739752	      6.01602385	     -1.42785583	     21.60851987	     32.87108476	     33.92194231	     57.74324451	   -107.25116036	     45.71859095	     -1.21564586	     -7.31545379	     28.64409744	    -62.41287588	     71.96683879
      2.66000000	      0.00000112	     -0.00000009	     -0.00000011	     -0.47301130	     67.40356009	     17.77228932	    -17.77228932	     66.78432608	     17.00276823	    -17.00276823	     34.10463213	    120.64735938	     64.75199151	     10.81207795	     -9.14538158	    -56.84592873	    -29.11249425	      6.08423753	     -1.41733662	     21.69084264	     32.81010732	     33.91650692	     57.79386066	   -107.34337983	     45.99347910	     -1.16794711	     -7.37114547	     28.81354079	    -62.42379779	     72.15482294
      2.68000000	      0.00000114	     -0.00000009	     -0.00000011	     -0.47183106	     67.27107794	     17.78473394	    -17.78473394	     66.64407290	     17.00713859	    -17.00713859	     34.18306190	    120.48115739	     64.66421928	     10.79468538	     -9.27833270	    -56.78425815	    -29.04100165	      6.04503731	     -1.47264211	     21.75050894	     32.84217153	     33.90367615	     57.74190696	   -107.29150740	     46.13821406	     -1.19030369	     -7.35992400	     28.84229078	    -62.42783496	     72.25251840
